<svg version="1.0" xmlns="http://www.w3.org/2000/svg" width="682.667" height="682.667" viewBox="0 0 512 512"><path d="M285.1 85.6c-31.4 5.3-60.6 24.3-78.6 51.4-13.7 20.5-19.5 40.5-19.5 66.9 0 34.2 11 61.8 33.4 84.5 23.5 23.7 53 35.6 88.2 35.6 33.6 0 61.7-10.8 84-32.2 22.2-21.3 33.7-45 36.6-75.6 3.5-36.3-7.8-70-31.8-95.2-18.5-19.3-40.9-31.3-66.4-35.5-11.7-1.8-34.4-1.8-45.9.1zm39.4 46.9c8.8 1.9 21.4 8 28.2 13.7 11 9.2 20.1 23.5 23.8 37.3.9 3.3 1.9 10.7 2.2 16.5 2.3 42.9-28.8 77-70.2 77-34.7 0-62.4-23.2-69.1-57.8-7.9-41.3 16.1-79.5 54.7-87.1 7.1-1.4 22.8-1.2 30.4.4zM0 203.9V320h26v-78h49.7l22.9 39 22.9 38.9 27.3.1h27.3l-1.2-2.3c-1.5-2.6-46.5-79.2-48.5-82.4-1.3-2.1-1.1-2.3 4.4-5.5 8.1-4.6 20.9-17.3 25.8-25.5 11-18.4 14-40 8.3-60.6-7-25-28.6-45.6-55.9-53.3-5.8-1.6-12-1.8-57.7-2.2L0 87.9v116zm98.6-68.1c6.4 2.9 12.6 9.2 15.6 15.7 3.2 7 3.2 19.8 0 27-3 6.5-9.2 12.8-15.6 15.7-5 2.2-6.1 2.3-38.8 2.6l-33.8.3v-31.4c0-17.2.3-31.7.7-32.1.4-.4 15.6-.6 33.8-.4 32 .3 33.2.4 38.1 2.6zM459 204v116h49V88h-49v116zM5 339.3l-4.5 1.2-.3 24.4c-.2 18.9.1 24.6 1 25.3.7.4 6.3 2.4 12.3 4.3 6.1 1.9 12.5 4.4 14.2 5.5 4.2 2.5 5.2 6.3 2.6 9.8-2.9 4-7 5.6-13.8 5.6-6.5-.1-9.4-1.2-13.8-5.2L0 407.6v11.6c0 13.2-.7 12.3 10.2 13.8 8.7 1.3 18.3-.1 25.5-3.6 19.8-9.5 20.5-37.6 1.3-47.4-2.2-1.1-9.5-3.8-16.4-6-16.8-5.5-20.8-8.9-17.1-14.6 4.6-7.1 17-6.9 23.1.2l2 2.5 9.2-2.2c5.1-1.1 9.2-2.6 9.2-3.2-.1-5.3-10.6-15.4-19-18.2-6.2-2.1-17.5-2.7-23-1.2zm90.3.2c-18.8 4.1-33.6 20.1-36.3 39.2-4.6 32.7 21.9 58.9 54.9 54.3 13-1.8 24.1-8.2 31.7-18.3 2.4-3.3 4.4-6.2 4.4-6.6 0-.4-4-2.1-8.9-3.9l-8.9-3.2-5.5 5.4c-6.5 6.6-13.6 9.2-22.7 8.3-14.6-1.3-23.9-11.6-24.8-27.5-.4-7.7-.2-8.7 2.7-14.7 8.7-17.6 30.7-21 44.9-6.9l5.3 5.3 8.2-3c4.5-1.7 8.5-3.4 9-3.8 1.2-1.2-6.9-11.6-12-15.4-7-5.1-12.7-7.7-20.2-9.3-8.1-1.7-13.7-1.7-21.8.1zm195-.1c-13.9 3.2-26.5 13.4-32.7 26.6-3 6.3-3.1 7-3.1 20v13.5l3.7 7.6c9.2 18.8 29.3 28.9 51.1 25.9 19.1-2.7 34.9-16.8 39.2-35.1 5.8-24.9-7-49-30.3-57-7.5-2.6-20.1-3.2-27.9-1.5zm25.4 21.2c13.2 8.2 17.7 24.7 10.7 39.1-8.1 16.8-31.1 20.5-44.3 7.1-6.1-6.2-7.6-10.2-7.6-20.8 0-8.7.3-10 3-14.9 5.3-9.7 14.1-14.3 26.2-13.7 5.9.2 8.2.8 12 3.2zm80.6-21.2c-30 6.9-45.5 40.1-31.8 68.2 14.3 29.3 55.7 35.1 78.3 11 7-7.5 10.6-14.6 12.3-24 2-11.6-.6-25.2-6.7-34.6-2.5-3.9-10.2-11.6-15.1-14.9-8.4-5.8-25.3-8.3-37-5.7zm20.9 19.2c6.4 2.1 12.2 7.5 15.5 14.2 2.3 4.8 2.8 6.9 2.7 13.2-.2 9-2.6 15.2-8.1 20.7-6 6-10.5 7.8-19.8 7.8-7 0-8.7-.4-13.3-2.9-5.8-3.2-9.3-7.3-12.4-14.2-2.6-6-2.3-18.8.7-24.9 2.7-5.5 9.7-12 14.8-13.8 5.6-2 14.3-2.1 19.9-.1zM161 386v46h19l.2-18.8.3-18.7h42l.3 18.7.2 18.8h19v-92h-19v36h-43v-36h-19v46zm306 0v46h45v-18h-25v-74h-20v46z"/></svg>